<svg width="90" height="90" viewBox="0 0 90 90" fill="none" xmlns="http://www.w3.org/2000/svg">
<g filter="url(#filter0_d_139_238)">
<rect x="15" y="15" width="60" height="60" rx="30" fill="#009247"/>
</g>
<g clip-path="url(#clip0_139_238)">
<path d="M59.8359 37.6214H57.6266C55.7476 33.1598 51.6101 29.9175 46.8468 29.2983C42.1264 28.669 37.4884 30.4859 34.4542 34.1432C33.5622 35.2185 32.8546 36.3875 32.3366 37.6214H30.1641C28.4193 37.6214 27 39.0408 27 40.7855V45.0043C27 46.749 28.4193 48.1683 30.1641 48.1683H34.4954L34.0422 46.7851C32.7228 42.7558 33.4654 38.639 36.0785 35.4904C38.6462 32.3953 42.5673 30.8638 46.5728 31.3891C50.8089 31.9409 54.4859 34.9367 55.9428 39.0232L55.9517 39.0469C56.1865 39.6711 56.3513 40.3127 56.446 40.973C56.7622 42.9454 56.582 44.9445 55.9259 46.7542L55.9213 46.7668C54.2928 51.3905 49.9127 54.4964 45.0206 54.4964C43.2645 54.4964 41.8359 55.9158 41.8359 57.6605C41.8359 59.4052 43.2553 60.8246 45 60.8246C46.7447 60.8246 48.1641 59.4052 48.1641 57.6605V56.2381C52.3754 55.2371 55.9126 52.2519 57.6129 48.1683H59.8359C61.5807 48.1683 63 46.7489 63 45.0042V40.7854C63 39.0407 61.5807 37.6214 59.8359 37.6214Z" fill="white"/>
<path d="M35.5078 50.2776V52.387H45C50.2343 52.387 54.4922 48.129 54.4922 42.8948C54.4922 37.6605 50.2343 33.4026 45 33.4026C39.7657 33.4026 35.5078 37.6605 35.5078 42.8948C35.5078 45.0289 36.2246 47.0909 37.5348 48.7584C37.2804 49.6472 36.4688 50.2776 35.5078 50.2776ZM48.1641 41.8401H50.2734V43.9495H48.1641V41.8401ZM43.9453 41.8401H46.0547V43.9495H43.9453V41.8401ZM39.7266 41.8401H41.8359V43.9495H39.7266V41.8401Z" fill="white"/>
</g>
<defs>
<filter id="filter0_d_139_238" x="0" y="0" width="90" height="90" filterUnits="userSpaceOnUse" color-interpolation-filters="sRGB">
<feFlood flood-opacity="0" result="BackgroundImageFix"/>
<feColorMatrix in="SourceAlpha" type="matrix" values="0 0 0 0 0 0 0 0 0 0 0 0 0 0 0 0 0 0 127 0" result="hardAlpha"/>
<feOffset/>
<feGaussianBlur stdDeviation="7.5"/>
<feComposite in2="hardAlpha" operator="out"/>
<feColorMatrix type="matrix" values="0 0 0 0 0 0 0 0 0 0.572549 0 0 0 0 0.278431 0 0 0 1 0"/>
<feBlend mode="normal" in2="BackgroundImageFix" result="effect1_dropShadow_139_238"/>
<feBlend mode="normal" in="SourceGraphic" in2="effect1_dropShadow_139_238" result="shape"/>
</filter>
<clipPath id="clip0_139_238">
<rect width="36" height="36" fill="white" transform="translate(27 27)"/>
</clipPath>
</defs>
</svg>
