<svg width="30" height="30" viewBox="0 0 30 30" fill="none" xmlns="http://www.w3.org/2000/svg">
<rect x="-1" y="1" width="28" height="28" rx="14" transform="matrix(-1 0 0 1 28 0)" stroke="#009247" stroke-width="2"/>
<path d="M16.0995 15.0001L20.7722 10.3273C21.0763 10.0233 21.0763 9.53191 20.7722 9.22796C20.4683 8.92401 19.9768 8.92401 19.6729 9.22796L15.0001 13.9008L10.3274 9.22796C10.0233 8.92401 9.53201 8.92401 9.22807 9.22796C8.92398 9.53191 8.92398 10.0233 9.22807 10.3273L13.9007 15.0001L9.22807 19.6729C8.92398 19.9768 8.92398 20.4683 9.22807 20.7722C9.37954 20.9238 9.57871 21 9.77773 21C9.97676 21 10.1758 20.9238 10.3274 20.7722L15.0001 16.0994L19.6729 20.7722C19.8245 20.9238 20.0235 21 20.2225 21C20.4216 21 20.6206 20.9238 20.7722 20.7722C21.0763 20.4683 21.0763 19.9768 20.7722 19.6729L16.0995 15.0001Z" fill="#009247"/>
</svg>
