<svg width="180" height="180" viewBox="0 0 180 180" fill="none" xmlns="http://www.w3.org/2000/svg">
<g clip-path="url(#clip0_145_6549)">
<path d="M176.44 53.994C168.58 33.9943 144.368 22.0008 123.862 29.9377C100.454 38.9974 108.215 76.2289 86.9535 83.7577C75.4683 87.8245 58.4903 72.6328 46.8863 70.303C25.5039 66.0104 6.14686 81.0977 1.38038 101.991C-3.48244 123.306 4.31698 151.776 27.736 157.561C55.6324 164.452 70.1636 139.375 93.5657 132.174C117.581 124.785 144.283 142.237 164.164 121.003C178.853 105.316 184.223 73.7982 176.44 53.994Z" fill="url(#paint0_linear_145_6549)"/>
<path opacity="0.1" d="M167.642 62.7866C167.642 48.9009 156.385 37.6439 142.499 37.6439C131.741 37.6439 122.566 44.4027 118.976 53.9037H28.0591C24.1757 53.9037 21.0278 57.0516 21.0278 60.9349V138.774C21.0278 142.658 24.1757 145.806 28.0591 145.806H151.941C155.824 145.806 158.972 142.658 158.972 138.774V81.772C164.28 77.162 167.642 70.3691 167.642 62.7866Z" fill="#3D7562"/>
<path d="M151.941 137.017H28.0591C24.1757 137.017 21.0278 133.869 21.0278 129.985V52.1459C21.0278 48.2625 24.1757 45.1146 28.0591 45.1146H151.941C155.824 45.1146 158.972 48.2625 158.972 52.1459V129.985C158.972 133.869 155.824 137.017 151.941 137.017Z" fill="white"/>
<path d="M92.1419 78.6484L158.973 129.985C158.973 133.869 155.825 137.017 151.941 137.017H28.0591C24.1757 137.017 21.0278 133.869 21.0278 129.985L87.8585 78.6484C89.1216 77.6781 90.8787 77.6781 92.1419 78.6484Z" fill="white"/>
<path d="M87.8585 103.483L21.0278 52.1459C21.0278 48.2625 24.1757 45.1146 28.0591 45.1146H151.941C155.824 45.1146 158.972 48.2625 158.972 52.1459L92.1419 103.483C90.8787 104.453 89.1216 104.453 87.8585 103.483Z" fill="white"/>
<path d="M130.411 127.661H119.114C118.143 127.661 117.356 126.874 117.356 125.903V118.115C117.356 117.144 118.143 116.357 119.114 116.357H130.411C131.382 116.357 132.169 117.144 132.169 118.115V125.903C132.169 126.874 131.382 127.661 130.411 127.661Z" fill="#009247"/>
<path d="M109.642 120.496H99.8574C98.8864 120.496 98.0996 119.708 98.0996 118.738C98.0996 117.767 98.8864 116.98 99.8574 116.98H109.642C110.613 116.98 111.4 117.767 111.4 118.738C111.4 119.708 110.613 120.496 109.642 120.496Z" fill="#3D7562"/>
<path d="M109.642 127.661H75.248C74.277 127.661 73.4902 126.874 73.4902 125.903C73.4902 124.933 74.277 124.146 75.248 124.146H109.642C110.613 124.146 111.4 124.933 111.4 125.903C111.4 126.874 110.613 127.661 109.642 127.661Z" fill="#3D7562"/>
<path d="M167.284 58.0233C169.506 44.3178 160.196 31.4063 146.491 29.1846C132.785 26.9628 119.874 36.2722 117.652 49.9776C115.43 63.683 124.74 76.5945 138.445 78.8163C152.151 81.038 165.062 71.7287 167.284 58.0233Z" fill="#009247"/>
<path d="M142.499 80.898C157.332 80.898 169.4 68.8307 169.4 53.9975C169.4 39.1644 157.332 27.097 142.499 27.097C127.666 27.097 115.598 39.1644 115.598 53.9975C115.598 62.6263 119.687 70.3136 126.023 75.2393L91.071 102.089C90.4414 102.573 89.5604 102.574 88.9293 102.089L22.8489 51.3281C23.243 48.8074 25.4297 46.8724 28.0591 46.8724H108.696C109.667 46.8724 110.453 46.0853 110.453 45.1146C110.453 44.1439 109.667 43.3568 108.696 43.3568H28.0591C23.2128 43.3568 19.27 47.2996 19.27 52.1459V129.985C19.27 134.832 23.2128 138.774 28.0591 138.774H151.941C156.787 138.774 160.73 134.832 160.73 129.985V83.5298C160.73 82.5592 159.943 81.772 158.972 81.772C158.001 81.772 157.214 82.5592 157.214 83.5298V126.418L111.192 91.0656L129.101 77.3089C133.049 79.5871 137.622 80.898 142.499 80.898ZM68.808 91.0656L22.7856 126.418V55.7128L68.808 91.0656ZM157.145 130.798C156.752 133.321 154.572 135.259 151.941 135.259H28.0591C25.4283 135.259 23.248 133.321 22.8549 130.798L71.6936 93.2822L86.7876 104.877C87.7333 105.603 88.8667 105.967 90.0002 105.967C91.1336 105.967 92.2667 105.603 93.2128 104.877L108.307 93.2818L157.145 130.798ZM119.114 53.9975C119.114 41.1033 129.604 30.6127 142.499 30.6127C155.394 30.6127 165.884 41.1029 165.884 53.9975C165.884 66.8918 155.394 77.3824 142.499 77.3824C129.604 77.3824 119.114 66.8918 119.114 53.9975Z" fill="#3D7562"/>
<path d="M131.525 45.4233L135.113 53.9975L131.525 62.5718C130.915 64.028 132.385 65.4869 133.837 64.8668L155.5 55.614C156.923 55.0062 156.923 52.9889 155.5 52.3811L133.837 43.1283C132.385 42.5081 130.915 43.9671 131.525 45.4233Z" fill="white"/>
<path d="M116.307 28.7125C115.001 28.7125 113.696 28.2157 112.702 27.2218C110.714 25.2341 110.714 22.0001 112.702 20.0127C114.689 18.0257 117.924 18.025 119.911 20.0127C121.899 22.0004 121.899 25.2345 119.911 27.2218C118.917 28.2157 117.612 28.7125 116.307 28.7125ZM116.307 22.0359C115.902 22.0359 115.496 22.1899 115.188 22.4986C114.571 23.1152 114.571 24.1189 115.188 24.7359C115.805 25.3526 116.808 25.3529 117.425 24.7359C118.042 24.1193 118.042 23.1156 117.425 22.4986C117.117 22.1903 116.711 22.0359 116.307 22.0359Z" fill="#009247"/>
<path d="M76.8297 161.478C75.5244 161.478 74.2187 160.981 73.2252 159.987C71.2374 158 71.2374 154.766 73.2252 152.778C75.2122 150.791 78.4473 150.791 80.4343 152.778C82.4221 154.766 82.4221 158 80.4343 159.987C79.4408 160.981 78.1351 161.478 76.8297 161.478ZM76.8297 154.801C76.4247 154.801 76.0194 154.955 75.7107 155.264C75.0941 155.881 75.0941 156.884 75.7107 157.501C76.3281 158.118 77.3311 158.118 77.9484 157.501C78.5651 156.885 78.5651 155.881 77.9484 155.264C77.6401 154.956 77.2347 154.801 76.8297 154.801Z" fill="#009247"/>
<path d="M103.634 33.2392C103.184 33.2392 102.734 33.0676 102.391 32.7245L100.294 30.6278L98.1968 32.7245C97.5109 33.4107 96.3971 33.4107 95.7112 32.7245C95.0246 32.0379 95.0246 30.9248 95.7112 30.2386L99.0511 26.8987C99.737 26.2125 100.851 26.2125 101.537 26.8987L104.876 30.2386C105.563 30.9252 105.563 32.0382 104.876 32.7245C104.534 33.0673 104.084 33.2392 103.634 33.2392Z" fill="#009247"/>
<path d="M154.599 154.801C154.149 154.801 153.699 154.629 153.356 154.286L151.259 152.189L149.162 154.286C148.476 154.972 147.362 154.972 146.676 154.286C145.989 153.599 145.989 152.486 146.676 151.8L150.016 148.46C150.702 147.774 151.816 147.774 152.501 148.46L155.841 151.8C156.528 152.487 156.528 153.6 155.841 154.286C155.499 154.629 155.048 154.801 154.599 154.801Z" fill="#009247"/>
<path d="M62.8891 156.471C62.4394 156.471 61.9891 156.299 61.6463 155.956L59.5492 153.859L57.4522 155.956C56.7663 156.642 55.6525 156.642 54.9666 155.956C54.28 155.269 54.28 154.156 54.9666 153.47L58.3065 150.13C58.9924 149.444 60.1061 149.444 60.792 150.13L64.1318 153.47C64.8184 154.157 64.8184 155.27 64.1318 155.956C63.7887 156.299 63.3387 156.471 62.8891 156.471Z" fill="#009247"/>
</g>
<defs>
<linearGradient id="paint0_linear_145_6549" x1="151.993" y1="176.711" x2="69.727" y2="67.7271" gradientUnits="userSpaceOnUse">
<stop stop-color="#F3FFF9"/>
<stop offset="1" stop-color="#007438" stop-opacity="0.11"/>
</linearGradient>
<clipPath id="clip0_145_6549">
<rect width="180" height="180" fill="white"/>
</clipPath>
</defs>
</svg>
